<mxfile host="app.diagrams.net" modified="2023-03-29T18:47:00.084Z" agent="Mozilla/5.0 (Windows NT 10.0; Win64; x64; rv:109.0) Gecko/20100101 Firefox/111.0" etag="oX_egT4eSex9_hqeYARW" version="21.1.2" type="github">
  <diagram name="Page-1" id="e56a1550-8fbb-45ad-956c-1786394a9013">
    <mxGraphModel dx="1055" dy="550" grid="1" gridSize="10" guides="1" tooltips="1" connect="1" arrows="1" fold="1" page="1" pageScale="1" pageWidth="1100" pageHeight="850" background="none" math="0" shadow="0">
      <root>
        <mxCell id="0" />
        <mxCell id="1" parent="0" />
        <mxCell id="BMfP-4tADi68_20JDYQc-26" style="edgeStyle=orthogonalEdgeStyle;rounded=0;orthogonalLoop=1;jettySize=auto;html=1;exitX=0.5;exitY=1;exitDx=0;exitDy=0;entryX=0.5;entryY=0;entryDx=0;entryDy=0;" edge="1" parent="1" source="BMfP-4tADi68_20JDYQc-1" target="BMfP-4tADi68_20JDYQc-27">
          <mxGeometry relative="1" as="geometry">
            <mxPoint x="460" y="350" as="targetPoint" />
          </mxGeometry>
        </mxCell>
        <mxCell id="BMfP-4tADi68_20JDYQc-32" value="" style="edgeStyle=orthogonalEdgeStyle;rounded=0;orthogonalLoop=1;jettySize=auto;html=1;" edge="1" parent="1" source="BMfP-4tADi68_20JDYQc-1" target="BMfP-4tADi68_20JDYQc-31">
          <mxGeometry relative="1" as="geometry" />
        </mxCell>
        <mxCell id="BMfP-4tADi68_20JDYQc-38" style="edgeStyle=orthogonalEdgeStyle;rounded=0;orthogonalLoop=1;jettySize=auto;html=1;exitX=0.5;exitY=0;exitDx=0;exitDy=0;entryX=0.75;entryY=0;entryDx=0;entryDy=0;" edge="1" parent="1" source="BMfP-4tADi68_20JDYQc-1" target="BMfP-4tADi68_20JDYQc-3">
          <mxGeometry relative="1" as="geometry" />
        </mxCell>
        <mxCell id="BMfP-4tADi68_20JDYQc-1" value="Data Crawler" style="shape=module;align=left;spacingLeft=20;align=center;verticalAlign=top;whiteSpace=wrap;html=1;" vertex="1" parent="1">
          <mxGeometry x="420" y="240" width="100" height="50" as="geometry" />
        </mxCell>
        <mxCell id="BMfP-4tADi68_20JDYQc-24" style="edgeStyle=orthogonalEdgeStyle;rounded=0;orthogonalLoop=1;jettySize=auto;html=1;exitX=0;exitY=0;exitDx=120;exitDy=95;exitPerimeter=0;entryX=0.107;entryY=-0.029;entryDx=0;entryDy=0;entryPerimeter=0;" edge="1" parent="1" source="BMfP-4tADi68_20JDYQc-2" target="BMfP-4tADi68_20JDYQc-3">
          <mxGeometry relative="1" as="geometry" />
        </mxCell>
        <mxCell id="BMfP-4tADi68_20JDYQc-2" value="Inintal Internet Content Set" style="verticalAlign=top;align=left;spacingTop=8;spacingLeft=2;spacingRight=12;shape=cube;size=10;direction=south;fontStyle=4;html=1;whiteSpace=wrap;" vertex="1" parent="1">
          <mxGeometry x="40" y="70" width="180" height="120" as="geometry" />
        </mxCell>
        <mxCell id="BMfP-4tADi68_20JDYQc-3" value="Crawling Queue" style="swimlane;fontStyle=0;childLayout=stackLayout;horizontal=1;startSize=26;fillColor=none;horizontalStack=0;resizeParent=1;resizeParentMax=0;resizeLast=0;collapsible=1;marginBottom=0;html=1;" vertex="1" parent="1">
          <mxGeometry x="80" y="250" width="150" height="248" as="geometry" />
        </mxCell>
        <mxCell id="BMfP-4tADi68_20JDYQc-4" value="?v=3E8l27b7ynA - InC" style="text;strokeColor=none;fillColor=none;align=left;verticalAlign=top;spacingLeft=4;spacingRight=4;overflow=hidden;rotatable=0;points=[[0,0.5],[1,0.5]];portConstraint=eastwest;whiteSpace=wrap;html=1;" vertex="1" parent="BMfP-4tADi68_20JDYQc-3">
          <mxGeometry y="26" width="150" height="26" as="geometry" />
        </mxCell>
        <mxCell id="BMfP-4tADi68_20JDYQc-5" value="@TheLibrarianYT - RInC" style="text;strokeColor=none;fillColor=none;align=left;verticalAlign=top;spacingLeft=4;spacingRight=4;overflow=hidden;rotatable=0;points=[[0,0.5],[1,0.5]];portConstraint=eastwest;whiteSpace=wrap;html=1;" vertex="1" parent="BMfP-4tADi68_20JDYQc-3">
          <mxGeometry y="52" width="150" height="26" as="geometry" />
        </mxCell>
        <mxCell id="BMfP-4tADi68_20JDYQc-6" value="?v=3E8l27b7ynA - UpC(15 mim)" style="text;strokeColor=none;fillColor=none;align=left;verticalAlign=top;spacingLeft=4;spacingRight=4;overflow=hidden;rotatable=0;points=[[0,0.5],[1,0.5]];portConstraint=eastwest;whiteSpace=wrap;html=1;" vertex="1" parent="BMfP-4tADi68_20JDYQc-3">
          <mxGeometry y="78" width="150" height="30" as="geometry" />
        </mxCell>
        <mxCell id="BMfP-4tADi68_20JDYQc-30" value="https://mega.nz/folder/HvZkgKKD#Ch-u4iuxCdqv8NDV6F96jw = InC" style="text;strokeColor=none;fillColor=none;align=left;verticalAlign=middle;spacingLeft=4;spacingRight=4;overflow=hidden;points=[[0,0.5],[1,0.5]];portConstraint=eastwest;rotatable=0;whiteSpace=wrap;html=1;" vertex="1" parent="BMfP-4tADi68_20JDYQc-3">
          <mxGeometry y="108" width="150" height="50" as="geometry" />
        </mxCell>
        <mxCell id="BMfP-4tADi68_20JDYQc-35" value="@TheLibrarianYT/channels&lt;div&gt;- InC&lt;br&gt;&lt;/div&gt;" style="text;strokeColor=none;fillColor=none;align=left;verticalAlign=middle;spacingLeft=4;spacingRight=4;overflow=hidden;points=[[0,0.5],[1,0.5]];portConstraint=eastwest;rotatable=0;whiteSpace=wrap;html=1;" vertex="1" parent="BMfP-4tADi68_20JDYQc-3">
          <mxGeometry y="158" width="150" height="30" as="geometry" />
        </mxCell>
        <mxCell id="BMfP-4tADi68_20JDYQc-36" value="@TheLibrarianYT:matadata&amp;nbsp; InC" style="text;strokeColor=none;fillColor=none;align=left;verticalAlign=middle;spacingLeft=4;spacingRight=4;overflow=hidden;points=[[0,0.5],[1,0.5]];portConstraint=eastwest;rotatable=0;whiteSpace=wrap;html=1;" vertex="1" parent="BMfP-4tADi68_20JDYQc-3">
          <mxGeometry y="188" width="150" height="30" as="geometry" />
        </mxCell>
        <mxCell id="BMfP-4tADi68_20JDYQc-37" value="....................." style="text;strokeColor=none;fillColor=none;align=left;verticalAlign=middle;spacingLeft=4;spacingRight=4;overflow=hidden;points=[[0,0.5],[1,0.5]];portConstraint=eastwest;rotatable=0;whiteSpace=wrap;html=1;" vertex="1" parent="BMfP-4tADi68_20JDYQc-3">
          <mxGeometry y="218" width="150" height="30" as="geometry" />
        </mxCell>
        <mxCell id="BMfP-4tADi68_20JDYQc-14" style="edgeStyle=orthogonalEdgeStyle;rounded=0;orthogonalLoop=1;jettySize=auto;html=1;entryX=0;entryY=0.5;entryDx=0;entryDy=0;entryPerimeter=0;" edge="1" parent="1" source="BMfP-4tADi68_20JDYQc-4" target="BMfP-4tADi68_20JDYQc-15">
          <mxGeometry relative="1" as="geometry">
            <mxPoint x="300" y="300" as="targetPoint" />
          </mxGeometry>
        </mxCell>
        <mxCell id="BMfP-4tADi68_20JDYQc-16" style="edgeStyle=orthogonalEdgeStyle;rounded=0;orthogonalLoop=1;jettySize=auto;html=1;exitX=1;exitY=0.5;exitDx=0;exitDy=0;exitPerimeter=0;entryX=0;entryY=0;entryDx=0;entryDy=15;entryPerimeter=0;" edge="1" parent="1" source="BMfP-4tADi68_20JDYQc-15" target="BMfP-4tADi68_20JDYQc-1">
          <mxGeometry relative="1" as="geometry" />
        </mxCell>
        <mxCell id="BMfP-4tADi68_20JDYQc-15" value="Delay" style="strokeWidth=2;html=1;shape=mxgraph.flowchart.delay;whiteSpace=wrap;" vertex="1" parent="1">
          <mxGeometry x="270" y="235" width="100" height="60" as="geometry" />
        </mxCell>
        <mxCell id="BMfP-4tADi68_20JDYQc-27" value="&lt;div&gt;Crawled&lt;/div&gt;&lt;div&gt;Content&lt;/div&gt;&lt;div&gt;Storage&lt;br&gt;&lt;/div&gt;" style="shape=dataStorage;whiteSpace=wrap;html=1;fixedSize=1;" vertex="1" parent="1">
          <mxGeometry x="380" y="435" width="100" height="80" as="geometry" />
        </mxCell>
        <mxCell id="BMfP-4tADi68_20JDYQc-33" style="edgeStyle=orthogonalEdgeStyle;rounded=0;orthogonalLoop=1;jettySize=auto;html=1;exitX=0.5;exitY=0;exitDx=0;exitDy=0;entryX=1;entryY=0.5;entryDx=0;entryDy=0;" edge="1" parent="1" source="BMfP-4tADi68_20JDYQc-31" target="BMfP-4tADi68_20JDYQc-45">
          <mxGeometry relative="1" as="geometry">
            <mxPoint x="530" y="170" as="targetPoint" />
          </mxGeometry>
        </mxCell>
        <mxCell id="BMfP-4tADi68_20JDYQc-31" value="&lt;div&gt;NLP&lt;/div&gt;&lt;div&gt;Metadata&lt;/div&gt;&lt;div&gt;Analizator&lt;br&gt;&lt;/div&gt;" style="shape=module;align=left;spacingLeft=20;align=center;verticalAlign=top;whiteSpace=wrap;html=1;" vertex="1" parent="1">
          <mxGeometry x="600" y="240" width="100" height="50" as="geometry" />
        </mxCell>
        <mxCell id="BMfP-4tADi68_20JDYQc-40" value="&lt;p style=&quot;margin:0px;margin-top:6px;text-align:center;&quot;&gt;&lt;b&gt;Crawling Task&lt;br&gt;&lt;/b&gt;&lt;/p&gt;&lt;hr&gt;&lt;p style=&quot;margin:0px;margin-left:8px;&quot;&gt;+ Crawling Type: CrawlingTypeEnum&lt;br&gt;+ DataDomain: DataDomain&lt;/p&gt;&lt;p style=&quot;margin:0px;margin-left:8px;&quot;&gt;+ IsScheduled: bool&lt;br&gt;&lt;/p&gt;&lt;p style=&quot;margin:0px;margin-left:8px;&quot;&gt;+ ScheduledTimeMinutes: float&lt;/p&gt;&lt;p style=&quot;margin:0px;margin-left:8px;&quot;&gt;+ target: BaseDataDomainTarget&lt;/p&gt;" style="align=left;overflow=fill;html=1;dropTarget=0;whiteSpace=wrap;" vertex="1" parent="1">
          <mxGeometry x="670" y="110" width="180" height="120" as="geometry" />
        </mxCell>
        <mxCell id="BMfP-4tADi68_20JDYQc-41" value="" style="shape=component;jettyWidth=8;jettyHeight=4;" vertex="1" parent="BMfP-4tADi68_20JDYQc-40">
          <mxGeometry x="1" width="20" height="20" relative="1" as="geometry">
            <mxPoint x="-24" y="4" as="offset" />
          </mxGeometry>
        </mxCell>
        <mxCell id="BMfP-4tADi68_20JDYQc-45" value="Have we exceeded the requests limit?" style="rhombus;whiteSpace=wrap;html=1;fontColor=#000000;fillColor=#ffffc0;strokeColor=#ff0000;" vertex="1" parent="1">
          <mxGeometry x="420" y="80" width="150" height="110" as="geometry" />
        </mxCell>
        <mxCell id="BMfP-4tADi68_20JDYQc-46" value="no" style="edgeStyle=orthogonalEdgeStyle;html=1;align=left;verticalAlign=bottom;endArrow=open;endSize=8;strokeColor=#ff0000;rounded=0;entryX=0.75;entryY=0;entryDx=0;entryDy=0;" edge="1" source="BMfP-4tADi68_20JDYQc-45" parent="1" target="BMfP-4tADi68_20JDYQc-3">
          <mxGeometry x="-1" relative="1" as="geometry">
            <mxPoint x="270" y="180" as="targetPoint" />
            <Array as="points">
              <mxPoint x="380" y="105" />
              <mxPoint x="380" y="200" />
              <mxPoint x="193" y="200" />
            </Array>
          </mxGeometry>
        </mxCell>
        <mxCell id="BMfP-4tADi68_20JDYQc-47" value="yes" style="edgeStyle=orthogonalEdgeStyle;html=1;align=left;verticalAlign=top;endArrow=open;endSize=8;strokeColor=#ff0000;rounded=0;exitX=0.5;exitY=0;exitDx=0;exitDy=0;entryX=0.5;entryY=0;entryDx=0;entryDy=0;" edge="1" source="BMfP-4tADi68_20JDYQc-45" parent="1" target="BMfP-4tADi68_20JDYQc-48">
          <mxGeometry x="-1" relative="1" as="geometry">
            <mxPoint x="440" y="60" as="targetPoint" />
            <Array as="points">
              <mxPoint x="495" y="70" />
              <mxPoint x="320" y="70" />
            </Array>
          </mxGeometry>
        </mxCell>
        <mxCell id="BMfP-4tADi68_20JDYQc-49" style="edgeStyle=orthogonalEdgeStyle;rounded=0;orthogonalLoop=1;jettySize=auto;html=1;exitX=0.5;exitY=1;exitDx=0;exitDy=0;" edge="1" parent="1" source="BMfP-4tADi68_20JDYQc-48" target="BMfP-4tADi68_20JDYQc-3">
          <mxGeometry relative="1" as="geometry" />
        </mxCell>
        <mxCell id="BMfP-4tADi68_20JDYQc-48" value="Wait" style="shape=delay;whiteSpace=wrap;html=1;" vertex="1" parent="1">
          <mxGeometry x="280" y="100" width="80" height="40" as="geometry" />
        </mxCell>
        <mxCell id="BMfP-4tADi68_20JDYQc-50" value="Crawling Module" style="text;html=1;strokeColor=none;fillColor=none;align=center;verticalAlign=middle;whiteSpace=wrap;rounded=0;" vertex="1" parent="1">
          <mxGeometry x="420" y="20" width="60" height="30" as="geometry" />
        </mxCell>
      </root>
    </mxGraphModel>
  </diagram>
</mxfile>
